<?xml version="1.0" standalone="no"?>
<!DOCTYPE svg PUBLIC "-//W3C//DTD SVG 20010904//EN"
 "http://www.w3.org/TR/2001/REC-SVG-20010904/DTD/svg10.dtd">
<svg version="1.0" xmlns="http://www.w3.org/2000/svg"
 width="259.000000pt" height="194.000000pt" viewBox="0 0 259.000000 194.000000"
 preserveAspectRatio="xMidYMid meet">

<g transform="translate(0.000000,194.000000) scale(0.100000,-0.100000)"
fill="#000000" stroke="none">
<path d="M565 1804 c-45 -23 -85 -65 -106 -109 -16 -35 -19 -68 -19 -277 l0
-238 110 0 c71 0 122 -5 144 -14 39 -16 75 -59 83 -99 5 -27 9 -29 40 -24 53
9 97 49 152 139 74 123 125 163 221 175 l48 6 7 44 c8 55 53 109 103 124 24 7
143 9 342 7 301 -3 305 -3 338 -26 55 -40 64 -69 60 -202 -3 -110 -5 -120 -28
-145 -51 -54 -54 -55 -390 -55 -271 0 -317 2 -347 17 -41 19 -71 62 -80 117
l-6 38 -44 -5 c-57 -6 -108 -47 -150 -118 -17 -30 -44 -72 -60 -95 l-30 -40
81 -17 c111 -23 204 -72 311 -162 136 -117 255 -165 408 -165 47 0 47 0 47 34
0 43 36 96 80 118 27 14 61 18 153 18 l117 0 0 403 c0 367 -2 405 -19 442 -19
43 -78 100 -118 116 -14 5 -314 9 -721 9 -611 0 -701 -2 -727 -16z"/>
<path d="M1358 1429 c-15 -8 -18 -25 -18 -104 0 -83 2 -96 19 -105 29 -15 603
-14 619 2 16 16 16 190 0 206 -15 15 -594 17 -620 1z"/>
<path d="M440 965 l0 -115 115 0 c136 0 135 -1 135 119 0 109 -3 111 -141 111
l-109 0 0 -115z"/>
<path d="M780 909 c0 -64 -24 -110 -72 -136 -26 -14 -57 -18 -150 -18 l-118 0
0 -235 c0 -206 3 -240 19 -275 19 -43 78 -100 118 -116 32 -12 1404 -12 1436
0 40 16 99 73 118 116 13 27 19 64 19 113 l0 72 -126 0 c-136 0 -161 7 -198
57 -10 14 -21 45 -24 68 l-4 43 -77 7 c-97 9 -206 37 -269 69 -27 14 -94 62
-147 106 -53 44 -120 92 -147 106 -68 35 -181 62 -288 70 l-90 7 0 -54z"/>
<path d="M2025 750 l-120 -5 -3 -99 c-2 -73 1 -102 10 -108 7 -4 64 -8 126 -8
l112 0 0 115 c0 63 -1 114 -2 113 -2 -1 -57 -4 -123 -8z"/>
</g>
</svg>
